<mxfile host="app.diagrams.net" modified="2024-01-11T11:35:52.165Z" agent="Mozilla/5.0 (Macintosh; Intel Mac OS X 10_15_7) AppleWebKit/537.36 (KHTML, like Gecko) Chrome/116.0.0.0 Safari/537.36" etag="hXzXWa1I7m0DfGNtkBWc" version="22.1.7" type="device">
  <diagram name="Page-1" id="YBFZ32hb41G_71OkFRTJ">
    <mxGraphModel dx="792" dy="541" grid="1" gridSize="10" guides="1" tooltips="1" connect="1" arrows="1" fold="1" page="1" pageScale="1" pageWidth="827" pageHeight="1169" math="0" shadow="0">
      <root>
        <mxCell id="0" />
        <mxCell id="1" parent="0" />
        <mxCell id="UhvbXXOcDOm_HhCcPs_r-4" value="Student User" style="shape=umlActor;verticalLabelPosition=bottom;verticalAlign=top;html=1;" vertex="1" parent="1">
          <mxGeometry x="670" y="380" width="30" height="60" as="geometry" />
        </mxCell>
        <mxCell id="UhvbXXOcDOm_HhCcPs_r-5" value="Programmer" style="shape=umlActor;verticalLabelPosition=bottom;verticalAlign=top;html=1;" vertex="1" parent="1">
          <mxGeometry x="70" y="180" width="30" height="60" as="geometry" />
        </mxCell>
        <mxCell id="UhvbXXOcDOm_HhCcPs_r-6" value="&lt;b&gt;Application for finding antonyms&lt;/b&gt;" style="shape=umlFrame;whiteSpace=wrap;html=1;pointerEvents=0;width=430;height=30;" vertex="1" parent="1">
          <mxGeometry x="150" y="40" width="440" height="440" as="geometry" />
        </mxCell>
        <mxCell id="UhvbXXOcDOm_HhCcPs_r-7" value="Trains a word vector embeddings model which ...&amp;nbsp;" style="ellipse;whiteSpace=wrap;html=1;" vertex="1" parent="1">
          <mxGeometry x="180" y="90" width="190" height="90" as="geometry" />
        </mxCell>
        <mxCell id="UhvbXXOcDOm_HhCcPs_r-8" value="Codes an html file to create a web interface in which the user inputs words" style="ellipse;whiteSpace=wrap;html=1;" vertex="1" parent="1">
          <mxGeometry x="180" y="210" width="200" height="100" as="geometry" />
        </mxCell>
        <mxCell id="UhvbXXOcDOm_HhCcPs_r-9" value="Inputs their own word into the web interface for which the application produces an antonym&amp;nbsp;" style="ellipse;whiteSpace=wrap;html=1;" vertex="1" parent="1">
          <mxGeometry x="350" y="320" width="200" height="100" as="geometry" />
        </mxCell>
        <mxCell id="UhvbXXOcDOm_HhCcPs_r-14" value="" style="endArrow=open;endFill=1;endSize=12;html=1;rounded=0;entryX=0.036;entryY=0.729;entryDx=0;entryDy=0;entryPerimeter=0;exitX=1;exitY=0.3333333333333333;exitDx=0;exitDy=0;exitPerimeter=0;" edge="1" parent="1" source="UhvbXXOcDOm_HhCcPs_r-5" target="UhvbXXOcDOm_HhCcPs_r-7">
          <mxGeometry width="160" relative="1" as="geometry">
            <mxPoint x="120" y="200" as="sourcePoint" />
            <mxPoint x="440" y="280" as="targetPoint" />
          </mxGeometry>
        </mxCell>
        <mxCell id="UhvbXXOcDOm_HhCcPs_r-16" value="" style="endArrow=open;endFill=1;endSize=12;html=1;rounded=0;" edge="1" parent="1">
          <mxGeometry width="160" relative="1" as="geometry">
            <mxPoint x="100" y="200" as="sourcePoint" />
            <mxPoint x="200" y="230" as="targetPoint" />
          </mxGeometry>
        </mxCell>
        <mxCell id="UhvbXXOcDOm_HhCcPs_r-18" value="" style="endArrow=open;endFill=1;endSize=12;html=1;rounded=0;exitX=0;exitY=0.3333333333333333;exitDx=0;exitDy=0;exitPerimeter=0;" edge="1" parent="1" source="UhvbXXOcDOm_HhCcPs_r-4" target="UhvbXXOcDOm_HhCcPs_r-9">
          <mxGeometry width="160" relative="1" as="geometry">
            <mxPoint x="536" y="246" as="sourcePoint" />
            <mxPoint x="630" y="280" as="targetPoint" />
          </mxGeometry>
        </mxCell>
      </root>
    </mxGraphModel>
  </diagram>
</mxfile>
